<svg width="44" height="44" viewBox="0 0 44 44" fill="none" xmlns="http://www.w3.org/2000/svg">
<circle cx="22" cy="22" r="22" fill="#F53C75"/>
<path d="M14.6667 35H7V10H17.5833L19.8672 15.943L19.5833 21.9637H24.3333L23.9525 15.9419L26.5 10H37V35H29.25V20.231L23.75 35H20.3333L14.6667 20.231V35Z" fill="url(#paint0_linear)"/>
<path fill-rule="evenodd" clip-rule="evenodd" d="M21.9086 19.3732L19.8363 15.9077H14.3509L19.044 23.1537L14.4621 30.0085L11.0331 25.049L14.5655 19.9692H10.3173L8.72998 22.4787L7.14272 19.9692H2.94112L6.53582 25.2163L2.7077 30.6308H6.92486L8.72998 27.8779L10.5662 30.6308H14.0462L14.0462 30.6308H19.5519L21.9086 26.8293L24.3059 30.6308H29.9539L29.9538 30.6308H33.3251L35.1302 27.8779L36.9665 30.6308H41.2926L37.4333 25.049L40.9658 19.9692H36.7175L35.1302 22.4787L33.543 19.9692H29.3414L32.9361 25.2163L29.5475 30.0091L24.9154 22.9227L29.5272 15.9077H23.9809L21.9086 19.3732Z" fill="#020133"/>
<defs>
<linearGradient id="paint0_linear" x1="22" y1="10" x2="22" y2="35" gradientUnits="userSpaceOnUse">
<stop stop-color="white"/>
<stop offset="1" stop-color="#E6E6E6"/>
</linearGradient>
</defs>
</svg>
